<mxfile host="app.diagrams.net" modified="2021-02-25T17:49:30.774Z" agent="5.0 (X11; Linux x86_64) AppleWebKit/537.36 (KHTML, like Gecko) Chrome/88.0.4324.182 Safari/537.36" etag="wKuBvRvFgJQERS8JPEXy" version="14.4.3" type="github">
  <diagram id="QUEXv-zH31tkNAEkJxzN" name="Page-1">
    <mxGraphModel dx="868" dy="494" grid="1" gridSize="10" guides="1" tooltips="1" connect="1" arrows="1" fold="1" page="1" pageScale="1" pageWidth="827" pageHeight="1169" math="0" shadow="0">
      <root>
        <mxCell id="0" />
        <mxCell id="1" parent="0" />
        <mxCell id="mrrp9Q2BjwzGY9tfKiwg-14" value="" style="edgeStyle=orthogonalEdgeStyle;rounded=0;orthogonalLoop=1;jettySize=auto;html=1;" edge="1" parent="1" source="mrrp9Q2BjwzGY9tfKiwg-1" target="mrrp9Q2BjwzGY9tfKiwg-7">
          <mxGeometry relative="1" as="geometry" />
        </mxCell>
        <mxCell id="mrrp9Q2BjwzGY9tfKiwg-1" value="" style="shape=image;html=1;verticalAlign=top;verticalLabelPosition=bottom;labelBackgroundColor=#ffffff;imageAspect=0;aspect=fixed;image=https://cdn3.iconfinder.com/data/icons/social-media-2169/24/social_media_social_media_logo_git-128.png" vertex="1" parent="1">
          <mxGeometry x="45" y="45" width="70" height="70" as="geometry" />
        </mxCell>
        <mxCell id="mrrp9Q2BjwzGY9tfKiwg-13" value="" style="edgeStyle=orthogonalEdgeStyle;rounded=0;orthogonalLoop=1;jettySize=auto;html=1;" edge="1" parent="1" source="mrrp9Q2BjwzGY9tfKiwg-7" target="mrrp9Q2BjwzGY9tfKiwg-8">
          <mxGeometry relative="1" as="geometry" />
        </mxCell>
        <mxCell id="mrrp9Q2BjwzGY9tfKiwg-7" value="" style="outlineConnect=0;dashed=0;verticalLabelPosition=bottom;verticalAlign=top;align=center;html=1;shape=mxgraph.aws3.codebuild;fillColor=#759C3E;gradientColor=none;" vertex="1" parent="1">
          <mxGeometry x="200" y="33" width="76.5" height="93" as="geometry" />
        </mxCell>
        <mxCell id="mrrp9Q2BjwzGY9tfKiwg-18" value="" style="edgeStyle=orthogonalEdgeStyle;rounded=0;orthogonalLoop=1;jettySize=auto;html=1;" edge="1" parent="1" source="mrrp9Q2BjwzGY9tfKiwg-8" target="mrrp9Q2BjwzGY9tfKiwg-10">
          <mxGeometry relative="1" as="geometry">
            <Array as="points">
              <mxPoint x="434" y="251" />
            </Array>
          </mxGeometry>
        </mxCell>
        <mxCell id="mrrp9Q2BjwzGY9tfKiwg-8" value="" style="outlineConnect=0;dashed=0;verticalLabelPosition=bottom;verticalAlign=top;align=center;html=1;shape=mxgraph.aws3.codedeploy;fillColor=#759C3E;gradientColor=none;" vertex="1" parent="1">
          <mxGeometry x="400" y="39" width="67.5" height="81" as="geometry" />
        </mxCell>
        <mxCell id="mrrp9Q2BjwzGY9tfKiwg-10" value="" style="pointerEvents=1;shadow=0;dashed=0;html=1;strokeColor=none;fillColor=#505050;labelPosition=center;verticalLabelPosition=bottom;verticalAlign=top;outlineConnect=0;align=center;shape=mxgraph.office.users.approver;" vertex="1" parent="1">
          <mxGeometry x="570" y="225" width="59" height="51.25" as="geometry" />
        </mxCell>
        <mxCell id="mrrp9Q2BjwzGY9tfKiwg-17" value="" style="edgeStyle=orthogonalEdgeStyle;rounded=0;orthogonalLoop=1;jettySize=auto;html=1;" edge="1" parent="1" target="mrrp9Q2BjwzGY9tfKiwg-1">
          <mxGeometry relative="1" as="geometry">
            <mxPoint x="80.10000000000002" y="220" as="sourcePoint" />
          </mxGeometry>
        </mxCell>
        <mxCell id="mrrp9Q2BjwzGY9tfKiwg-19" value="" style="shape=image;html=1;verticalAlign=top;verticalLabelPosition=bottom;labelBackgroundColor=#ffffff;imageAspect=0;aspect=fixed;image=https://cdn2.iconfinder.com/data/icons/electronics-17/24/electronics-09-128.png" vertex="1" parent="1">
          <mxGeometry x="52.5" y="230" width="57.5" height="57.5" as="geometry" />
        </mxCell>
      </root>
    </mxGraphModel>
  </diagram>
</mxfile>
